<?xml version="1.0" encoding="UTF-8" standalone="no"?>
<!DOCTYPE svg PUBLIC "-//W3C//DTD SVG 1.1//EN"
 "http://www.w3.org/Graphics/SVG/1.1/DTD/svg11.dtd">
<!-- Generated by graphviz version 2.47.2 (20210527.0053)
 -->
<!-- Pages: 1 -->
<svg width="364pt" height="1064pt"
 viewBox="0.00 0.00 364.00 1064.00" xmlns="http://www.w3.org/2000/svg" xmlns:xlink="http://www.w3.org/1999/xlink">
<g id="graph0" class="graph" transform="scale(1 1) rotate(0) translate(4 1060)">
<polygon fill="white" stroke="transparent" points="-4,4 -4,-1060 360,-1060 360,4 -4,4"/>
<!-- i&#45;Input73 -->
<g id="node1" class="node">
<title>i&#45;Input73</title>
<polygon fill="grey" stroke="transparent" points="39.5,-1027 39.5,-1048 74.5,-1048 74.5,-1027 39.5,-1027"/>
<polygon fill="none" stroke="black" points="39.5,-1027 39.5,-1048 74.5,-1048 74.5,-1027 39.5,-1027"/>
<text text-anchor="start" x="42.5" y="-1033.8" font-family="Times,serif" font-size="14.00">Input</text>
</g>
<!-- Block386 -->
<g id="node2" class="node">
<title>Block386</title>
<polygon fill="grey" stroke="transparent" points="22.5,-959 22.5,-980 90.5,-980 90.5,-959 22.5,-959"/>
<polygon fill="none" stroke="black" points="22.5,-959 22.5,-980 90.5,-980 90.5,-959 22.5,-959"/>
<text text-anchor="start" x="25.5" y="-965.8" font-family="Times,serif" font-size="14.00">Div</text>
<polygon fill="none" stroke="black" points="22.5,-938 22.5,-959 90.5,-959 90.5,-938 22.5,-938"/>
<text text-anchor="start" x="25.5" y="-945.8" font-family="Times,serif" font-weight="bold" font-size="14.00">B</text>
<text text-anchor="start" x="35.5" y="-945.8" font-family="Times,serif" font-size="14.00">   (255.0)</text>
</g>
<!-- i&#45;Input73&#45;&gt;Block386 -->
<g id="edge1" class="edge">
<title>i&#45;Input73&#45;&gt;Block386</title>
<path fill="none" stroke="black" d="M56.5,-1019.9C56.5,-1012.3 56.5,-1003.1 56.5,-994.23"/>
<polygon fill="black" stroke="black" points="60,-994.05 56.5,-984.05 53,-994.05 60,-994.05"/>
</g>
<!-- Convolution28 -->
<g id="node3" class="node">
<title>Convolution28</title>
<polygon fill="grey" stroke="transparent" points="8.5,-873 8.5,-894 105.5,-894 105.5,-873 8.5,-873"/>
<polygon fill="none" stroke="black" points="8.5,-873 8.5,-894 105.5,-894 105.5,-873 8.5,-873"/>
<text text-anchor="start" x="11.5" y="-879.8" font-family="Times,serif" font-size="14.00">Conv</text>
<polygon fill="none" stroke="black" points="8.5,-852 8.5,-873 105.5,-873 105.5,-852 8.5,-852"/>
<text text-anchor="start" x="11.5" y="-859.8" font-family="Times,serif" font-weight="bold" font-size="14.00">W</text>
<text text-anchor="start" x="26.5" y="-859.8" font-family="Times,serif" font-size="14.00">   &lt;8x1x5x5&gt;</text>
</g>
<!-- Block386&#45;&gt;Convolution28 -->
<g id="edge2" class="edge">
<title>Block386&#45;&gt;Convolution28</title>
<path fill="none" stroke="black" d="M56.5,-933.7C56.5,-925.78 56.5,-916.83 56.5,-908.31"/>
<polygon fill="black" stroke="black" points="60,-908.24 56.5,-898.24 53,-908.24 60,-908.24"/>
</g>
<!-- Plus30 -->
<g id="node4" class="node">
<title>Plus30</title>
<polygon fill="grey" stroke="transparent" points="95.5,-783 95.5,-804 125.5,-804 125.5,-783 95.5,-783"/>
<polygon fill="none" stroke="black" points="95.5,-783 95.5,-804 125.5,-804 125.5,-783 95.5,-783"/>
<text text-anchor="start" x="98.5" y="-789.8" font-family="Times,serif" font-size="14.00">Add</text>
</g>
<!-- Convolution28&#45;&gt;Plus30 -->
<g id="edge3" class="edge">
<title>Convolution28&#45;&gt;Plus30</title>
<path fill="none" stroke="black" d="M73.59,-847.64C79.61,-839.05 86.4,-829.36 92.5,-820.67"/>
<polygon fill="black" stroke="black" points="95.44,-822.58 98.31,-812.38 89.71,-818.56 95.44,-822.58"/>
</g>
<!-- ReLU32 -->
<g id="node5" class="node">
<title>ReLU32</title>
<polygon fill="grey" stroke="transparent" points="94.5,-711 94.5,-732 126.5,-732 126.5,-711 94.5,-711"/>
<polygon fill="none" stroke="black" points="94.5,-711 94.5,-732 126.5,-732 126.5,-711 94.5,-711"/>
<text text-anchor="start" x="97.5" y="-717.8" font-family="Times,serif" font-size="14.00">Relu</text>
</g>
<!-- Plus30&#45;&gt;ReLU32 -->
<g id="edge4" class="edge">
<title>Plus30&#45;&gt;ReLU32</title>
<path fill="none" stroke="black" d="M110.5,-775.7C110.5,-767.98 110.5,-758.71 110.5,-750.11"/>
<polygon fill="black" stroke="black" points="114,-750.1 110.5,-740.1 107,-750.1 114,-750.1"/>
</g>
<!-- Pooling66 -->
<g id="node6" class="node">
<title>Pooling66</title>
<polygon fill="grey" stroke="transparent" points="82.5,-632 82.5,-653 139.5,-653 139.5,-632 82.5,-632"/>
<polygon fill="none" stroke="black" points="82.5,-632 82.5,-653 139.5,-653 139.5,-632 82.5,-632"/>
<text text-anchor="start" x="85.5" y="-638.8" font-family="Times,serif" font-size="14.00">MaxPool</text>
</g>
<!-- ReLU32&#45;&gt;Pooling66 -->
<g id="edge5" class="edge">
<title>ReLU32&#45;&gt;Pooling66</title>
<path fill="none" stroke="black" d="M110.5,-703.91C110.5,-694.34 110.5,-682.18 110.5,-671.32"/>
<polygon fill="black" stroke="black" points="114,-671.04 110.5,-661.04 107,-671.04 114,-671.04"/>
</g>
<!-- Convolution110 -->
<g id="node9" class="node">
<title>Convolution110</title>
<polygon fill="grey" stroke="transparent" points="59.5,-557 59.5,-578 162.5,-578 162.5,-557 59.5,-557"/>
<polygon fill="none" stroke="black" points="59.5,-557 59.5,-578 162.5,-578 162.5,-557 59.5,-557"/>
<text text-anchor="start" x="62.5" y="-563.8" font-family="Times,serif" font-size="14.00">Conv</text>
<polygon fill="none" stroke="black" points="59.5,-536 59.5,-557 162.5,-557 162.5,-536 59.5,-536"/>
<text text-anchor="start" x="62.5" y="-543.8" font-family="Times,serif" font-weight="bold" font-size="14.00">W</text>
<text text-anchor="start" x="77.5" y="-543.8" font-family="Times,serif" font-size="14.00">   &lt;16x8x5x5&gt;</text>
</g>
<!-- Pooling66&#45;&gt;Convolution110 -->
<g id="edge8" class="edge">
<title>Pooling66&#45;&gt;Convolution110</title>
<path fill="none" stroke="black" d="M110.5,-624.6C110.5,-615.27 110.5,-603.45 110.5,-592.37"/>
<polygon fill="black" stroke="black" points="114,-592.07 110.5,-582.07 107,-592.07 114,-592.07"/>
</g>
<!-- Reshape398 -->
<g id="node7" class="node">
<title>Reshape398</title>
<polygon fill="grey" stroke="transparent" points="132.5,-959 132.5,-980 199.5,-980 199.5,-959 132.5,-959"/>
<polygon fill="none" stroke="black" points="132.5,-959 132.5,-980 199.5,-980 199.5,-959 132.5,-959"/>
<text text-anchor="start" x="135.5" y="-965.8" font-family="Times,serif" font-size="14.00">Reshape</text>
<polygon fill="none" stroke="black" points="132.5,-938 132.5,-959 199.5,-959 199.5,-938 132.5,-938"/>
<text text-anchor="start" x="135.5" y="-945.8" font-family="Times,serif" font-weight="bold" font-size="14.00">data</text>
<text text-anchor="start" x="161.5" y="-945.8" font-family="Times,serif" font-size="14.00">   &lt;8&gt;</text>
</g>
<!-- Plus30_reshape1 -->
<g id="node8" class="node">
<title>Plus30_reshape1</title>
<polygon fill="grey" stroke="transparent" points="139.5,-862 139.5,-883 191.5,-883 191.5,-862 139.5,-862"/>
<polygon fill="none" stroke="black" points="139.5,-862 139.5,-883 191.5,-883 191.5,-862 139.5,-862"/>
<text text-anchor="start" x="142.5" y="-868.8" font-family="Times,serif" font-size="14.00">Reshape</text>
</g>
<!-- Reshape398&#45;&gt;Plus30_reshape1 -->
<g id="edge6" class="edge">
<title>Reshape398&#45;&gt;Plus30_reshape1</title>
<path fill="none" stroke="black" d="M165.5,-933.7C165.5,-923.56 165.5,-911.74 165.5,-901.3"/>
<polygon fill="black" stroke="black" points="169,-901.05 165.5,-891.05 162,-901.05 169,-901.05"/>
</g>
<!-- Plus30_reshape1&#45;&gt;Plus30 -->
<g id="edge7" class="edge">
<title>Plus30_reshape1&#45;&gt;Plus30</title>
<path fill="none" stroke="black" d="M153.29,-854.91C146.03,-844.74 136.68,-831.65 128.57,-820.3"/>
<polygon fill="black" stroke="black" points="131.33,-818.14 122.67,-812.04 125.63,-822.21 131.33,-818.14"/>
</g>
<!-- Plus112 -->
<g id="node10" class="node">
<title>Plus112</title>
<polygon fill="grey" stroke="transparent" points="151.5,-467 151.5,-488 181.5,-488 181.5,-467 151.5,-467"/>
<polygon fill="none" stroke="black" points="151.5,-467 151.5,-488 181.5,-488 181.5,-467 151.5,-467"/>
<text text-anchor="start" x="154.5" y="-473.8" font-family="Times,serif" font-size="14.00">Add</text>
</g>
<!-- Convolution110&#45;&gt;Plus112 -->
<g id="edge9" class="edge">
<title>Convolution110&#45;&gt;Plus112</title>
<path fill="none" stroke="black" d="M128.22,-531.64C134.47,-523.05 141.51,-513.36 147.83,-504.67"/>
<polygon fill="black" stroke="black" points="150.81,-506.53 153.86,-496.38 145.15,-502.41 150.81,-506.53"/>
</g>
<!-- ReLU114 -->
<g id="node11" class="node">
<title>ReLU114</title>
<polygon fill="grey" stroke="transparent" points="150.5,-395 150.5,-416 182.5,-416 182.5,-395 150.5,-395"/>
<polygon fill="none" stroke="black" points="150.5,-395 150.5,-416 182.5,-416 182.5,-395 150.5,-395"/>
<text text-anchor="start" x="153.5" y="-401.8" font-family="Times,serif" font-size="14.00">Relu</text>
</g>
<!-- Plus112&#45;&gt;ReLU114 -->
<g id="edge10" class="edge">
<title>Plus112&#45;&gt;ReLU114</title>
<path fill="none" stroke="black" d="M166.5,-459.7C166.5,-451.98 166.5,-442.71 166.5,-434.11"/>
<polygon fill="black" stroke="black" points="170,-434.1 166.5,-424.1 163,-434.1 170,-434.1"/>
</g>
<!-- Pooling160 -->
<g id="node12" class="node">
<title>Pooling160</title>
<polygon fill="grey" stroke="transparent" points="138.5,-323 138.5,-344 195.5,-344 195.5,-323 138.5,-323"/>
<polygon fill="none" stroke="black" points="138.5,-323 138.5,-344 195.5,-344 195.5,-323 138.5,-323"/>
<text text-anchor="start" x="141.5" y="-329.8" font-family="Times,serif" font-size="14.00">MaxPool</text>
</g>
<!-- ReLU114&#45;&gt;Pooling160 -->
<g id="edge11" class="edge">
<title>ReLU114&#45;&gt;Pooling160</title>
<path fill="none" stroke="black" d="M166.5,-387.7C166.5,-379.98 166.5,-370.71 166.5,-362.11"/>
<polygon fill="black" stroke="black" points="170,-362.1 166.5,-352.1 163,-362.1 170,-362.1"/>
</g>
<!-- Times212_reshape0 -->
<g id="node15" class="node">
<title>Times212_reshape0</title>
<polygon fill="grey" stroke="transparent" points="140.5,-244 140.5,-265 192.5,-265 192.5,-244 140.5,-244"/>
<polygon fill="none" stroke="black" points="140.5,-244 140.5,-265 192.5,-265 192.5,-244 140.5,-244"/>
<text text-anchor="start" x="143.5" y="-250.8" font-family="Times,serif" font-size="14.00">Reshape</text>
</g>
<!-- Pooling160&#45;&gt;Times212_reshape0 -->
<g id="edge14" class="edge">
<title>Pooling160&#45;&gt;Times212_reshape0</title>
<path fill="none" stroke="black" d="M166.5,-315.91C166.5,-306.34 166.5,-294.18 166.5,-283.32"/>
<polygon fill="black" stroke="black" points="170,-283.04 166.5,-273.04 163,-283.04 170,-283.04"/>
</g>
<!-- Reshape408 -->
<g id="node13" class="node">
<title>Reshape408</title>
<polygon fill="grey" stroke="transparent" points="185.5,-643 185.5,-664 259.5,-664 259.5,-643 185.5,-643"/>
<polygon fill="none" stroke="black" points="185.5,-643 185.5,-664 259.5,-664 259.5,-643 185.5,-643"/>
<text text-anchor="start" x="188.5" y="-649.8" font-family="Times,serif" font-size="14.00">Reshape</text>
<polygon fill="none" stroke="black" points="185.5,-622 185.5,-643 259.5,-643 259.5,-622 185.5,-622"/>
<text text-anchor="start" x="188.5" y="-629.8" font-family="Times,serif" font-weight="bold" font-size="14.00">data</text>
<text text-anchor="start" x="214.5" y="-629.8" font-family="Times,serif" font-size="14.00">   &lt;16&gt;</text>
</g>
<!-- Plus112_reshape1 -->
<g id="node14" class="node">
<title>Plus112_reshape1</title>
<polygon fill="grey" stroke="transparent" points="196.5,-546 196.5,-567 248.5,-567 248.5,-546 196.5,-546"/>
<polygon fill="none" stroke="black" points="196.5,-546 196.5,-567 248.5,-567 248.5,-546 196.5,-546"/>
<text text-anchor="start" x="199.5" y="-552.8" font-family="Times,serif" font-size="14.00">Reshape</text>
</g>
<!-- Reshape408&#45;&gt;Plus112_reshape1 -->
<g id="edge12" class="edge">
<title>Reshape408&#45;&gt;Plus112_reshape1</title>
<path fill="none" stroke="black" d="M222.5,-617.7C222.5,-607.56 222.5,-595.74 222.5,-585.3"/>
<polygon fill="black" stroke="black" points="226,-585.05 222.5,-575.05 219,-585.05 226,-585.05"/>
</g>
<!-- Plus112_reshape1&#45;&gt;Plus112 -->
<g id="edge13" class="edge">
<title>Plus112_reshape1&#45;&gt;Plus112</title>
<path fill="none" stroke="black" d="M210.07,-538.91C202.68,-528.74 193.16,-515.65 184.9,-504.3"/>
<polygon fill="black" stroke="black" points="187.6,-502.07 178.89,-496.04 181.94,-506.19 187.6,-502.07"/>
</g>
<!-- Times212 -->
<g id="node16" class="node">
<title>Times212</title>
<polygon fill="grey" stroke="transparent" points="200.5,-165 200.5,-186 252.5,-186 252.5,-165 200.5,-165"/>
<polygon fill="none" stroke="black" points="200.5,-165 200.5,-186 252.5,-186 252.5,-165 200.5,-165"/>
<text text-anchor="start" x="203.5" y="-171.8" font-family="Times,serif" font-size="14.00">MatMul</text>
</g>
<!-- Times212_reshape0&#45;&gt;Times212 -->
<g id="edge15" class="edge">
<title>Times212_reshape0&#45;&gt;Times212</title>
<path fill="none" stroke="black" d="M179.82,-236.91C187.82,-226.64 198.14,-213.4 207.04,-201.97"/>
<polygon fill="black" stroke="black" points="209.83,-204.08 213.22,-194.04 204.31,-199.78 209.83,-204.08"/>
</g>
<!-- Plus214 -->
<g id="node17" class="node">
<title>Plus214</title>
<polygon fill="grey" stroke="transparent" points="191.5,-97 191.5,-118 262.5,-118 262.5,-97 191.5,-97"/>
<polygon fill="none" stroke="black" points="191.5,-97 191.5,-118 262.5,-118 262.5,-97 191.5,-97"/>
<text text-anchor="start" x="194.5" y="-103.8" font-family="Times,serif" font-size="14.00">Add</text>
<polygon fill="none" stroke="black" points="191.5,-76 191.5,-97 262.5,-97 262.5,-76 191.5,-76"/>
<text text-anchor="start" x="194.5" y="-83.8" font-family="Times,serif" font-weight="bold" font-size="14.00">B</text>
<text text-anchor="start" x="204.5" y="-83.8" font-family="Times,serif" font-size="14.00">   &lt;1x10&gt;</text>
</g>
<!-- Times212&#45;&gt;Plus214 -->
<g id="edge16" class="edge">
<title>Times212&#45;&gt;Plus214</title>
<path fill="none" stroke="black" d="M226.5,-157.91C226.5,-150.33 226.5,-141.13 226.5,-132.23"/>
<polygon fill="black" stroke="black" points="230,-132.05 226.5,-122.05 223,-132.05 230,-132.05"/>
</g>
<!-- o&#45;Plus422_Output_0 -->
<g id="node18" class="node">
<title>o&#45;Plus422_Output_0</title>
<polygon fill="grey" stroke="transparent" points="204.5,-7 204.5,-28 248.5,-28 248.5,-7 204.5,-7"/>
<polygon fill="none" stroke="black" points="204.5,-7 204.5,-28 248.5,-28 248.5,-7 204.5,-7"/>
<text text-anchor="start" x="207.5" y="-13.8" font-family="Times,serif" font-size="14.00">Output</text>
</g>
<!-- Plus214&#45;&gt;o&#45;Plus422_Output_0 -->
<g id="edge17" class="edge">
<title>Plus214&#45;&gt;o&#45;Plus422_Output_0</title>
<path fill="none" stroke="black" d="M226.5,-71.64C226.5,-63.67 226.5,-54.77 226.5,-46.58"/>
<polygon fill="black" stroke="black" points="230,-46.38 226.5,-36.38 223,-46.38 230,-46.38"/>
</g>
<!-- Times212_reshape1 -->
<g id="node19" class="node">
<title>Times212_reshape1</title>
<polygon fill="grey" stroke="transparent" points="227.5,-255 227.5,-276 348.5,-276 348.5,-255 227.5,-255"/>
<polygon fill="none" stroke="black" points="227.5,-255 227.5,-276 348.5,-276 348.5,-255 227.5,-255"/>
<text text-anchor="start" x="230.5" y="-261.8" font-family="Times,serif" font-size="14.00">Reshape</text>
<polygon fill="none" stroke="black" points="227.5,-234 227.5,-255 348.5,-255 348.5,-234 227.5,-234"/>
<text text-anchor="start" x="230.5" y="-241.8" font-family="Times,serif" font-weight="bold" font-size="14.00">data</text>
<text text-anchor="start" x="256.5" y="-241.8" font-family="Times,serif" font-size="14.00">   &lt;16x4x4x10&gt;</text>
</g>
<!-- Times212_reshape1&#45;&gt;Times212 -->
<g id="edge18" class="edge">
<title>Times212_reshape1&#45;&gt;Times212</title>
<path fill="none" stroke="black" d="M268.2,-229.64C261.32,-220.96 253.56,-211.16 246.62,-202.4"/>
<polygon fill="black" stroke="black" points="249.22,-200.05 240.27,-194.38 243.73,-204.39 249.22,-200.05"/>
</g>
</g>
</svg>
